HIERARCHY
ROOT Hips
{
	OFFSET -0.001795 -0.223333 0.028219
	CHANNELS 6 Xposition Yposition Zposition Zrotation Yrotation Xrotation 
	JOINT LeftUpLeg
	{
		OFFSET 0.069520 -0.091406 -0.006815
		CHANNELS 3 Zrotation Yrotation Xrotation
		JOINT LeftLeg
		{
			OFFSET 0.034277 -0.375199 -0.004496
			CHANNELS 3 Zrotation Yrotation Xrotation
			JOINT LeftFoot
			{
				OFFSET -0.013596 -0.397961 -0.043693
				CHANNELS 3 Zrotation Yrotation Xrotation
				JOINT LeftToe
				{
					OFFSET 0.026358 -0.055791 0.119288
					CHANNELS 3 Zrotation Yrotation Xrotation
					End Site
					{
						OFFSET 0.000000 0.000000 0.000000
					}
				}
			}
		}
	}
	JOINT RightUpLeg
	{
		OFFSET -0.067670 -0.090522 -0.004320
		CHANNELS 3 Zrotation Yrotation Xrotation
		JOINT RightLeg
		{
			OFFSET -0.038290 -0.382569 -0.008850
			CHANNELS 3 Zrotation Yrotation Xrotation
			JOINT RightFoot
			{
				OFFSET 0.015774 -0.398415 -0.042312
				CHANNELS 3 Zrotation Yrotation Xrotation
				JOINT RightToe
				{
					OFFSET -0.025372 -0.048144 0.123348
					CHANNELS 3 Zrotation Yrotation Xrotation
					End Site
					{
						OFFSET 0.000000 0.000000 0.000000
					}
				}
			}
		}
	}
	JOINT Spine
	{
		OFFSET -0.002533 0.108963 -0.026696
		CHANNELS 3 Zrotation Yrotation Xrotation
		JOINT Spine1
		{
			OFFSET 0.005487 0.135180 0.001092
			CHANNELS 3 Zrotation Yrotation Xrotation
			JOINT Spine2
			{
				OFFSET 0.001457 0.052922 0.025425
				CHANNELS 3 Zrotation Yrotation Xrotation
				JOINT Neck
				{
					OFFSET -0.002778 0.213870 -0.042857
					CHANNELS 3 Zrotation Yrotation Xrotation
					JOINT Head
					{
						OFFSET 0.005152 0.064970 0.051349
						CHANNELS 3 Zrotation Yrotation Xrotation
						End Site
						{
							OFFSET 0.000000 0.000000 0.000000
						}
					}
				}
				JOINT LeftShoulder
				{
					OFFSET 0.078845 0.121749 -0.034090
					CHANNELS 3 Zrotation Yrotation Xrotation
					JOINT LeftArm
					{
						OFFSET 0.090977 0.030469 -0.008868
						CHANNELS 3 Zrotation Yrotation Xrotation
						JOINT LeftForeArm
						{
							OFFSET 0.259612 -0.012772 -0.027456
							CHANNELS 3 Zrotation Yrotation Xrotation
							JOINT LeftHand
							{
								OFFSET 0.249234 0.008986 -0.001171
								CHANNELS 3 Zrotation Yrotation Xrotation
								End Site
								{
									OFFSET 0.000000 0.000000 0.000000
								}
							}
						}
					}
				}
				JOINT RightShoulder
				{
					OFFSET -0.081759 0.118833 -0.038615
					CHANNELS 3 Zrotation Yrotation Xrotation
					JOINT RightArm
					{
						OFFSET -0.096012 0.032551 -0.009143
						CHANNELS 3 Zrotation Yrotation Xrotation
						JOINT RightForeArm
						{
							OFFSET -0.253742 -0.013329 -0.021401
							CHANNELS 3 Zrotation Yrotation Xrotation
							JOINT RightHand
							{
								OFFSET -0.255298 0.007772 -0.005559
								CHANNELS 3 Zrotation Yrotation Xrotation
								End Site
								{
									OFFSET 0.000000 0.000000 0.000000
								}
							}
						}
					}
				}
			}
		}
	}
}
MOTION
Frames: 9
Frame Time: 0.050000
0.022241 0.959801 -0.038024 0.598090 0.648514 15.856798 7.335440 -0.848258 -17.446111 3.213137 -0.368591 0.637555 -2.095557 1.645516 13.417020 0.000000 0.000000 0.000000 -5.465146 1.238134 -17.578526 -9.189899 0.400658 -4.226981 3.483671 -1.647119 20.916154 0.000000 0.000000 0.000000 2.501198 -0.654985 7.676244 -0.905378 0.498675 -4.714411 -9.939117 9.994437 8.367295 19.034150 -7.575210 -22.496720 0.000000 0.000000 0.000000 2.170136 -22.062396 7.025014 -58.041685 -34.600568 8.733713 -1.335628 -19.627819 0.730764 0.000000 0.000000 0.000000 -2.162846 9.937322 3.715197 71.009369 22.974966 10.972108 0.761088 32.641950 1.883905 0.000000 0.000000 0.000000 
0.022864 0.959792 -0.038242 0.349228 0.302020 15.649093 7.603070 -0.807171 -17.620726 3.091071 -0.410335 1.509443 -1.852921 1.821991 12.951009 0.000000 0.000000 0.000000 -5.189855 1.265991 -17.445113 -9.339458 0.420085 -4.128031 3.550773 -1.541087 20.696754 0.000000 0.000000 0.000000 2.472577 -0.631920 7.428407 -1.158266 0.591296 -4.261463 -9.799581 10.130126 7.564054 19.579597 -7.888203 -22.427415 0.000000 0.000000 0.000000 1.766274 -21.457739 6.830890 -57.389741 -32.922644 7.863376 -1.119544 -20.476213 0.694604 0.000000 0.000000 0.000000 -1.752714 9.975200 3.789562 70.739932 23.074225 10.968149 0.457831 33.144098 1.847592 0.000000 0.000000 0.000000 
0.023605 0.959097 -0.038354 0.025613 -0.194651 15.459028 7.904492 -0.750430 -17.602323 2.815309 -0.421550 2.220801 -1.323895 2.422056 12.371311 0.000000 0.000000 0.000000 -4.857707 1.321279 -17.638894 -9.252063 0.447293 -3.830459 3.465013 -1.918981 21.022010 0.000000 0.000000 0.000000 2.348303 -0.618437 7.527796 -1.021923 0.538189 -4.640717 -9.675177 10.626075 7.442570 19.800050 -8.004663 -22.414336 0.000000 0.000000 0.000000 1.372732 -20.584554 6.539134 -56.876179 -31.778008 7.203079 -1.010415 -21.775745 0.677983 0.000000 0.000000 0.000000 -1.359740 9.718965 3.752903 70.514123 23.238245 11.032128 0.555404 34.740262 2.046908 0.000000 0.000000 0.000000 
0.024332 0.958486 -0.038502 -0.403523 -0.894436 15.226024 8.242943 -0.677626 -17.372787 2.825046 -0.455824 2.764744 -0.925985 2.713889 11.556680 0.000000 0.000000 0.000000 -4.515919 1.398164 -18.037826 -8.979360 0.490519 -3.271567 3.569767 -1.726403 20.535689 0.000000 0.000000 0.000000 2.379863 -0.615938 7.486226 -1.092809 0.554421 -4.146956 -9.204537 10.363227 6.569036 20.102853 -8.268039 -22.206810 0.000000 0.000000 0.000000 1.426524 -19.923323 6.357007 -57.219442 -30.773338 6.916728 -1.044951 -22.821282 0.715534 0.000000 0.000000 0.000000 -1.286871 9.792610 3.774277 71.128024 23.947259 11.602552 0.229247 35.958740 2.031172 0.000000 0.000000 0.000000 
0.025051 0.957308 -0.038636 -0.818005 -1.865017 15.040971 8.760193 -0.575497 -17.287344 2.722446 -0.476300 3.341558 -0.546046 3.167542 11.367111 0.000000 0.000000 0.000000 -4.291346 1.468701 -18.350559 -8.671879 0.535192 -2.632762 3.780079 -1.525221 20.363185 0.000000 0.000000 0.000000 2.337707 -0.607480 7.530631 -1.053257 0.533439 -4.364528 -8.769820 10.556164 5.990256 19.593940 -7.920629 -22.354020 0.000000 0.000000 0.000000 0.746502 -19.281388 6.150809 -57.017330 -29.551376 6.440711 -1.144510 -23.791710 0.752208 0.000000 0.000000 0.000000 -0.768314 9.877802 3.870540 71.563040 24.340795 11.887212 -0.099779 37.259698 2.046445 0.000000 0.000000 0.000000 
0.025760 0.956927 -0.038672 -1.071316 -2.828807 14.928337 9.205928 -0.481606 -17.363495 2.322392 -0.468896 4.268570 -0.014453 3.690909 10.513800 0.000000 0.000000 0.000000 -4.124644 1.556314 -18.955963 -8.334899 0.613106 -1.648328 4.073912 -0.877441 19.476832 0.000000 0.000000 0.000000 2.445430 -0.588846 7.082039 -1.124298 0.555145 -4.371361 -8.367016 9.906544 5.682409 19.342170 -7.612952 -23.207387 0.000000 0.000000 0.000000 0.637580 -18.905183 6.087174 -57.098453 -29.112357 6.436948 -0.160179 -24.273280 0.600047 0.000000 0.000000 0.000000 -0.241049 10.142212 3.993453 72.318260 25.037427 12.260520 -0.700009 39.285606 1.967383 0.000000 0.000000 0.000000 
0.026456 0.956625 -0.038470 -1.269477 -3.312209 14.539217 9.650356 -0.402869 -16.946703 1.977927 -0.424753 4.405066 0.230144 4.085605 10.621927 0.000000 0.000000 0.000000 -3.990703 1.587316 -19.035112 -8.181938 0.660315 -1.090948 4.209842 -0.793016 19.577384 0.000000 0.000000 0.000000 2.596421 -0.581367 6.743835 -0.937327 0.475283 -4.475400 -8.035864 9.059443 5.137057 18.157839 -6.973030 -23.372266 0.000000 0.000000 0.000000 0.079655 -18.642562 6.051079 -56.940004 -29.305981 6.759204 -0.077742 -25.683006 0.647478 0.000000 0.000000 0.000000 0.039427 10.445019 4.090717 73.346538 24.757287 12.086392 -0.923714 41.981550 2.024412 0.000000 0.000000 0.000000 
0.027312 0.957301 -0.038104 -1.343312 -3.303139 14.481675 9.934355 -0.371512 -17.091181 1.641379 -0.399406 4.982623 0.578903 4.490307 9.923747 0.000000 0.000000 0.000000 -3.970790 1.585972 -18.989290 -7.801679 0.654520 -0.833112 4.396655 -0.300574 19.191430 0.000000 0.000000 0.000000 2.887376 -0.524856 5.318256 -0.921771 0.467012 -4.245207 -7.461590 7.532072 4.733302 17.076459 -6.499241 -23.398262 0.000000 0.000000 0.000000 0.486581 -18.650291 6.137391 -55.539976 -30.899715 7.576118 1.218737 -27.985123 0.445776 0.000000 0.000000 0.000000 -0.429649 10.031713 3.809551 74.994288 23.870703 11.564485 -1.278170 45.442037 2.002460 0.000000 0.000000 0.000000 
0.028467 0.958756 -0.037533 -1.207964 -3.124812 14.165792 9.770266 -0.394396 -16.807901 1.612467 -0.407952 5.269188 0.721863 4.756170 9.899845 0.000000 0.000000 0.000000 -4.475354 1.495975 -18.550017 -7.533009 0.647843 -0.696743 4.616323 0.082152 19.286769 0.000000 0.000000 0.000000 3.092713 -0.449849 3.921224 -0.542655 0.313571 -4.386663 -7.369108 6.385154 4.380284 15.668314 -6.159544 -22.054849 0.000000 0.000000 0.000000 1.228417 -18.739435 6.194921 -53.144695 -33.609036 8.572309 4.291109 -32.265426 -0.339409 0.000000 0.000000 0.000000 -0.399208 9.803473 3.675867 75.453001 22.933087 10.709571 -5.275795 50.006780 0.448255 0.000000 0.000000 0.000000 
